<svg xmlns="http://www.w3.org/2000/svg" viewBox="0 0 64 64" role="img" aria-label="Bloom by Maryam rose icon">
  <defs>
    <linearGradient id="bg" x1="0" x2="1" y1="0" y2="1">
      <stop offset="0" stop-color="#FFF8F0"/>
      <stop offset="1" stop-color="#FFE7EF"/>
    </linearGradient>
    <linearGradient id="petal" x1="0" x2="1" y1="0" y2="1">
      <stop offset="0" stop-color="#FF9AB8"/>
      <stop offset=".55" stop-color="#D85A7C"/>
      <stop offset="1" stop-color="#9B2F52"/>
    </linearGradient>
    <linearGradient id="leaf" x1="0" x2="1" y1="0" y2="1">
      <stop offset="0" stop-color="#9BCB8F"/>
      <stop offset="1" stop-color="#4F8656"/>
    </linearGradient>
  </defs>
  <rect width="64" height="64" rx="18" fill="url(#bg)"/>
  <circle cx="32" cy="29" r="22" fill="#fff" opacity=".72"/>
  <path d="M31 44c5-7 10-14 16-19" stroke="#4F8656" stroke-width="4.5" stroke-linecap="round" fill="none"/>
  <path d="M39 36c6-2 11 0 15 5-7 2-12 1-15-5Z" fill="url(#leaf)"/>
  <path d="M31 42c-6-2-11 0-15 5 7 2 12 1 15-5Z" fill="url(#leaf)"/>
  <path d="M31 10c9 2 15 9 15 17 0 10-7 17-16 17-10 0-17-7-17-16 0-7 5-13 13-15 0 6 2 10 5 13 3-5 3-10 0-16Z" fill="url(#petal)"/>
  <path d="M26 17c-6 4-8 10-5 16 2 5 7 8 13 7-8-4-10-11-8-23Z" fill="#B84A62" opacity=".72"/>
  <path d="M35 16c7 4 9 11 6 17-2 4-6 7-11 7 7-5 9-13 5-24Z" fill="#FFB2C7" opacity=".75"/>
  <path d="M25 27c3-5 8-7 14-5-1 6-5 10-11 12 3-3 2-5-3-7Z" fill="#FFF1F5" opacity=".72"/>
</svg>
