<svg xmlns="http://www.w3.org/2000/svg" viewBox="0 0 64 64" role="img" aria-label="Bloom by Maryam flower icon">
  <defs>
    <linearGradient id="bg" x1="0" x2="1" y1="0" y2="1">
      <stop offset="0" stop-color="#FFF8F0"/>
      <stop offset="1" stop-color="#FFF1F5"/>
    </linearGradient>
    <linearGradient id="rose" x1="0" x2="1" y1="0" y2="1">
      <stop offset="0" stop-color="#FF8FB1"/>
      <stop offset="1" stop-color="#B84A62"/>
    </linearGradient>
    <linearGradient id="leaf" x1="0" x2="1" y1="0" y2="1">
      <stop offset="0" stop-color="#8FD29B"/>
      <stop offset="1" stop-color="#2F7D52"/>
    </linearGradient>
  </defs>
  <rect width="64" height="64" rx="18" fill="url(#bg)"/>
  <circle cx="32" cy="32" r="23" fill="#ffffff" opacity=".72"/>
  <path d="M32 8c7.8 7.3 9.2 15.1 0 23.8C22.8 23.1 24.2 15.3 32 8Z" fill="url(#rose)"/>
  <path d="M32 56c-7.8-7.3-9.2-15.1 0-23.8C41.2 40.9 39.8 48.7 32 56Z" fill="#4A2433"/>
  <path d="M8 32c7.3-7.8 15.1-9.2 23.8 0C23.1 41.2 15.3 39.8 8 32Z" fill="#D8C7FF"/>
  <path d="M56 32c-7.3 7.8-15.1 9.2-23.8 0C40.9 22.8 48.7 24.2 56 32Z" fill="url(#leaf)"/>
  <circle cx="32" cy="32" r="8.2" fill="#FFD166" stroke="#D8A75B" stroke-width="2"/>
  <circle cx="29.5" cy="29" r="2.2" fill="#FFF8F0" opacity=".9"/>
</svg>
