<svg xmlns="http://www.w3.org/2000/svg" viewBox="0 0 64 64">
  <rect width="64" height="64" rx="16" fill="#FFF8F0"/>
  <circle cx="32" cy="32" r="7" fill="#D8A75B"/>
  <path d="M32 6c7 8 7 17 0 26-7-9-7-18 0-26Z" fill="#EFA3B8"/>
  <path d="M32 58c-7-8-7-17 0-26 7 9 7 18 0 26Z" fill="#B84A62"/>
  <path d="M6 32c8-7 17-7 26 0-9 7-18 7-26 0Z" fill="#D8C7FF"/>
  <path d="M58 32c-8 7-17 7-26 0 9-7 18-7 26 0Z" fill="#A8C3A0"/>
  <path d="M13.5 13.5c10 .5 16.5 7 18.5 18.5-11.5-2-18-8.5-18.5-18.5Z" fill="#F7C4D1"/>
  <path d="M50.5 50.5c-10-.5-16.5-7-18.5-18.5 11.5 2 18 8.5 18.5 18.5Z" fill="#4A2433"/>
</svg>
