<svg xmlns="http://www.w3.org/2000/svg" viewBox="0 0 64 64" role="img" aria-label="Bloom by Maryam rose icon">
  <defs>
    <linearGradient id="bg" x1="8" x2="56" y1="6" y2="58" gradientUnits="userSpaceOnUse">
      <stop stop-color="#FFF8F0"/>
      <stop offset=".54" stop-color="#FFE7EF"/>
      <stop offset="1" stop-color="#F6D9B8"/>
    </linearGradient>
    <linearGradient id="rose" x1="18" x2="48" y1="12" y2="48" gradientUnits="userSpaceOnUse">
      <stop stop-color="#FF8CA5"/>
      <stop offset=".5" stop-color="#D94D70"/>
      <stop offset="1" stop-color="#8B294A"/>
    </linearGradient>
    <linearGradient id="leaf" x1="17" x2="51" y1="35" y2="54" gradientUnits="userSpaceOnUse">
      <stop stop-color="#BFD9A0"/>
      <stop offset="1" stop-color="#5E8C61"/>
    </linearGradient>
  </defs>
  <rect width="64" height="64" rx="18" fill="url(#bg)"/>
  <circle cx="32" cy="31" r="24" fill="#fff" opacity=".62"/>
  <path d="M30 48c4.3-9 10.6-15.3 19-19" fill="none" stroke="#5E8C61" stroke-width="4.2" stroke-linecap="round"/>
  <path d="M38 43c7.4-3.8 13.2-2.4 18 4.2-8.2 2.2-14.1.8-18-4.2Z" fill="url(#leaf)"/>
  <path d="M29 47c-7.1-2.8-13-1-17.6 5.1 8 1.6 13.9-.2 17.6-5.1Z" fill="url(#leaf)"/>
  <path d="M32 10c9 2.1 14.8 8.5 14.8 16.8 0 9.8-7 17.3-16 17.3-9.3 0-16.8-7.2-16.8-16 0-7.5 5.4-13.5 13-15.4.2 5.1 1.9 9 5.1 11.7C35.2 19 35.2 14.2 32 10Z" fill="url(#rose)"/>
  <path d="M24.4 17.8c-5.1 3.8-6.5 9.2-4 15.1 2 4.7 6.4 7.2 12.6 7.1-7-4.6-9.9-11.9-8.6-22.2Z" fill="#9F3153" opacity=".75"/>
  <path d="M38.2 17.3c5.9 4 7.2 9.9 4.1 15.6-2.1 3.8-6.1 6.3-11.1 6.8 6.7-5.6 9-13.1 7-22.4Z" fill="#FFB2C5" opacity=".82"/>
  <path d="M24.2 29c3.5-5.8 9.2-8 16.8-6.2-1.1 7-5.8 11.8-13.6 14 3.7-3.7 2.6-6.2-3.2-7.8Z" fill="#FFF4F7" opacity=".8"/>
  <circle cx="32" cy="30" r="3.9" fill="#F7C65B"/>
</svg>
