<svg xmlns="http://www.w3.org/2000/svg" viewBox="0 0 900 1100" role="img" aria-label="Luxury blush and coral bouquet">
  <defs>
    <linearGradient id="paper" x1="250" x2="680" y1="360" y2="1060" gradientUnits="userSpaceOnUse">
      <stop stop-color="#FFF8F0"/>
      <stop offset=".58" stop-color="#FCE4E8"/>
      <stop offset="1" stop-color="#E8C1CC"/>
    </linearGradient>
    <linearGradient id="roseA" x1="0" x2="1" y1="0" y2="1">
      <stop stop-color="#FF9AB2"/>
      <stop offset=".54" stop-color="#E85A7A"/>
      <stop offset="1" stop-color="#913052"/>
    </linearGradient>
    <linearGradient id="roseB" x1="0" x2="1" y1="0" y2="1">
      <stop stop-color="#FFF4F5"/>
      <stop offset=".52" stop-color="#F5B5C7"/>
      <stop offset="1" stop-color="#C95879"/>
    </linearGradient>
    <linearGradient id="peach" x1="0" x2="1" y1="0" y2="1">
      <stop stop-color="#FFDAB5"/>
      <stop offset=".55" stop-color="#FF8E79"/>
      <stop offset="1" stop-color="#C94C63"/>
    </linearGradient>
    <linearGradient id="leaf" x1="0" x2="1" y1="0" y2="1">
      <stop stop-color="#CFE5B3"/>
      <stop offset="1" stop-color="#5E8C61"/>
    </linearGradient>
    <filter id="shadow" x="-20%" y="-20%" width="140%" height="140%">
      <feDropShadow dx="0" dy="28" stdDeviation="34" flood-color="#4A2433" flood-opacity=".18"/>
    </filter>
    <filter id="soft" x="-20%" y="-20%" width="140%" height="140%">
      <feDropShadow dx="0" dy="12" stdDeviation="14" flood-color="#B84A62" flood-opacity=".18"/>
    </filter>
  </defs>
  <rect width="900" height="1100" fill="none"/>
  <g filter="url(#shadow)">
    <path d="M188 432c95-77 231-113 369-87 148 28 251 118 281 249 32 140-10 293-109 390-87 85-216 116-351 81-132-34-232-123-270-242-46-146-15-296 80-391Z" fill="url(#paper)"/>
    <path d="M227 705c119 55 304 64 478-15-31 154-146 292-284 337-92-84-157-190-194-322Z" fill="#FFF8F0" opacity=".5"/>
  </g>
  <g fill="none" stroke="#5E8C61" stroke-width="10" stroke-linecap="round" opacity=".9">
    <path d="M447 861c-28-218-72-424-132-618"/>
    <path d="M458 860c32-230 73-423 124-579"/>
    <path d="M456 858c-5-205-6-402-3-590"/>
    <path d="M448 857c-86-180-149-324-189-431"/>
    <path d="M466 858c83-175 155-314 216-418"/>
  </g>
  <g filter="url(#soft)">
    <path d="M294 394c-55-44-64-112-20-161 47-52 126-48 169 3 43 52 30 128-29 162-38 22-83 21-120-4Z" fill="url(#roseA)"/>
    <path d="M277 267c50 8 82 32 96 73-49 6-87-18-96-73Z" fill="#FFF0F3" opacity=".75"/>
    <path d="M338 217c34 48 37 91 9 130-39-31-42-82-9-130Z" fill="#FFB0C2" opacity=".8"/>
    <path d="M261 336c55-24 104-18 147 18-44 39-109 31-147-18Z" fill="#B63E62" opacity=".55"/>
  </g>
  <g filter="url(#soft)">
    <path d="M528 365c-60-28-85-92-57-150 30-62 107-80 162-40 55 40 59 117 10 163-32 30-75 40-115 27Z" fill="url(#roseB)"/>
    <path d="M490 246c50-5 87 11 112 48-45 19-88 1-112-48Z" fill="#FFF9F8" opacity=".78"/>
    <path d="M554 188c47 34 63 74 47 119-46-19-64-66-47-119Z" fill="#F8C4D2" opacity=".82"/>
    <path d="M493 318c47-37 95-45 145-23-33 49-98 60-145 23Z" fill="#CC5B7B" opacity=".48"/>
  </g>
  <g filter="url(#soft)">
    <path d="M424 278c-52-34-68-94-36-142 34-51 107-59 154-16 47 42 42 112-9 147-32 22-73 26-109 11Z" fill="url(#peach)"/>
    <path d="M398 170c46 1 80 20 100 57-43 12-82-8-100-57Z" fill="#FFF4E9" opacity=".8"/>
    <path d="M458 125c38 38 48 76 30 114-41-23-51-67-30-114Z" fill="#FFC7A8" opacity=".85"/>
    <path d="M387 232c47-30 91-32 132-7-38 41-95 44-132 7Z" fill="#D76370" opacity=".45"/>
  </g>
  <g filter="url(#soft)">
    <path d="M653 505c-56-29-77-89-49-139 30-53 101-65 149-27 48 39 48 109 0 149-29 25-66 31-100 17Z" fill="url(#roseA)"/>
    <path d="M623 397c44-2 78 15 100 49-40 16-79-2-100-49Z" fill="#FFF3F6" opacity=".77"/>
    <path d="M684 347c38 33 50 70 36 109-41-19-54-61-36-109Z" fill="#FFADC1" opacity=".78"/>
    <path d="M613 462c44-33 87-39 131-19-32 45-90 53-131 19Z" fill="#B63E62" opacity=".5"/>
  </g>
  <g filter="url(#soft)">
    <path d="M217 550c-47-23-66-73-44-117 24-48 85-59 128-24 43 34 43 94 2 128-25 20-56 25-86 13Z" fill="url(#roseB)"/>
    <path d="M191 459c39-2 67 12 86 41-35 14-69-1-86-41Z" fill="#FFF7F8" opacity=".75"/>
    <path d="M244 418c34 28 45 59 32 93-35-16-46-52-32-93Z" fill="#F5BBCB" opacity=".8"/>
    <path d="M184 514c39-29 77-34 115-16-29 39-78 46-115 16Z" fill="#C95879" opacity=".45"/>
  </g>
  <g fill="url(#leaf)" opacity=".95" filter="url(#soft)">
    <path d="M318 469c-77-46-145-48-205-8 75 27 143 30 205 8Z"/>
    <path d="M562 481c83-49 157-48 221 1-83 25-157 25-221-1Z"/>
    <path d="M360 610c-79-31-144-21-196 29 79 12 144 2 196-29Z"/>
    <path d="M548 610c81-35 148-27 200 24-82 16-149 8-200-24Z"/>
    <path d="M448 455c-29-75-20-139 29-193 22 74 12 139-29 193Z"/>
  </g>
  <g fill="#FFF4F7" opacity=".85">
    <circle cx="356" cy="488" r="22"/>
    <circle cx="604" cy="572" r="18"/>
    <circle cx="502" cy="465" r="16"/>
    <circle cx="278" cy="650" r="14"/>
    <circle cx="681" cy="657" r="13"/>
  </g>
  <path d="M301 806c79 48 180 55 303 22" fill="none" stroke="#FFF8F0" stroke-width="18" stroke-linecap="round" opacity=".78"/>
</svg>
